# xmcd
#
# Track frame offsets: 
#        150
#        1503
#        25147
#        50870
#        71588
#        93509
#        113400
#        130806
#        149697
#        169678
#        187113
#        213376
#        225587
#        243661
#        260079
#
# Disc length: 3727 seconds
#
# Revision: 1
# Processed by: cddbd v1.5.2PL0 Copyright (c) Steve Scherf et al.
# Submitted via: ExactAudioCopy v0.99pb5
#
DISCID=d50e8d0f
DTITLE=Benedict and The Magic Band - Tengo  un  tumbao
DYEAR=2006
DGENRE=Salsa
TTITLE0=Gozando
TTITLE1=Sandunguera
TTITLE2=MeVoyPaSiempre-Aguantate
TTITLE3=Cañaveral
TTITLE4=Rumbon Melon
TTITLE5=Yo te seguiré
TTITLE6=Sabes que te quiero
TTITLE7=Niño John's
TTITLE8=Tengo un tumbao
TTITLE9=Salsa y dulzura
TTITLE10=Sabiduria-Negrita
TTITLE11=Pelao
TTITLE12=Mascaras
TTITLE13=Pa'l Bailador
TTITLE14=Quiero quedarme en tí
EXTD=YEAR: 2006
EXTT0=
EXTT1=
EXTT2=
EXTT3=
EXTT4=
EXTT5=
EXTT6=
EXTT7=
EXTT8=
EXTT9=
EXTT10=
EXTT11=
EXTT12=
EXTT13=
EXTT14=
PLAYORDER=
